<svg width="16" height="16" viewBox="0 0 16 16" fill="none" xmlns="http://www.w3.org/2000/svg">
<path fill-rule="evenodd" clip-rule="evenodd" d="M2 3.49976C2 3.22361 2.22386 2.99976 2.5 2.99976H13.5C13.7761 2.99976 14 3.22361 14 3.49976C14 3.7759 13.7761 3.99976 13.5 3.99976H2.5C2.22386 3.99976 2 3.7759 2 3.49976Z" fill="#8047F8"/>
<path fill-rule="evenodd" clip-rule="evenodd" d="M6.5 5.99976C6.77614 5.99976 7 6.22361 7 6.49976V10.4998C7 10.7759 6.77614 10.9998 6.5 10.9998C6.22386 10.9998 6 10.7759 6 10.4998V6.49976C6 6.22361 6.22386 5.99976 6.5 5.99976Z" fill="#8047F8"/>
<path fill-rule="evenodd" clip-rule="evenodd" d="M9.5 5.99976C9.77614 5.99976 10 6.22361 10 6.49976V10.4998C10 10.7759 9.77614 10.9998 9.5 10.9998C9.22386 10.9998 9 10.7759 9 10.4998V6.49976C9 6.22361 9.22386 5.99976 9.5 5.99976Z" fill="#8047F8"/>
<path fill-rule="evenodd" clip-rule="evenodd" d="M3.5 2.99976C3.77614 2.99976 4 3.22361 4 3.49976V12.9998H12V3.49976C12 3.22361 12.2239 2.99976 12.5 2.99976C12.7761 2.99976 13 3.22361 13 3.49976V12.9998C13 13.265 12.8946 13.5193 12.7071 13.7069C12.5196 13.8944 12.2652 13.9998 12 13.9998H4C3.73478 13.9998 3.48043 13.8944 3.29289 13.7069C3.10536 13.5193 3 13.265 3 12.9998V3.49976C3 3.22361 3.22386 2.99976 3.5 2.99976Z" fill="#8047F8"/>
<path fill-rule="evenodd" clip-rule="evenodd" d="M5.43934 1.4391C5.72064 1.15779 6.10218 0.999756 6.5 0.999756H9.5C9.89782 0.999756 10.2794 1.15779 10.5607 1.4391C10.842 1.7204 11 2.10193 11 2.49976V3.49976C11 3.7759 10.7761 3.99976 10.5 3.99976C10.2239 3.99976 10 3.7759 10 3.49976V2.49976C10 2.36715 9.94732 2.23997 9.85355 2.1462C9.75979 2.05243 9.63261 1.99976 9.5 1.99976H6.5C6.36739 1.99976 6.24022 2.05243 6.14645 2.1462C6.05268 2.23997 6 2.36715 6 2.49976V3.49976C6 3.7759 5.77614 3.99976 5.5 3.99976C5.22386 3.99976 5 3.7759 5 3.49976V2.49976C5 2.10193 5.15804 1.7204 5.43934 1.4391Z" fill="#8047F8"/>
</svg>
